<?xml version="1.0" encoding="utf-8"?>
<!-- Generator: Adobe Illustrator 17.0.0, SVG Export Plug-In . SVG Version: 6.00 Build 0)  -->
<!DOCTYPE svg PUBLIC "-//W3C//DTD SVG 1.1//EN" "http://www.w3.org/Graphics/SVG/1.1/DTD/svg11.dtd">
<svg version="1.1" id="Layer_1" xmlns="http://www.w3.org/2000/svg" xmlns:xlink="http://www.w3.org/1999/xlink" x="0px" y="0px"
	 width="255.12px" height="170.08px" viewBox="0 0 255.12 170.08" enable-background="new 0 0 255.12 170.08" xml:space="preserve">
<circle fill="#FFF000" cx="156.28" cy="103.31" r="65.77"/>
<g>
	<path d="M124.41,120.922c0-1.403-1.137-2.542-2.542-2.542H64.392c1.324-25.065,22.128-45.047,47.507-45.047
		c9.169,0,18.07,2.613,25.736,7.561c1.18,0.759,2.752,0.422,3.515-0.759c0.761-1.18,0.42-2.754-0.758-3.515
		c-8.493-5.476-18.345-8.371-28.493-8.371c-29.036,0-52.66,23.629-52.66,52.673c0,1.403,1.137,2.542,2.542,2.542h60.086
		C123.271,123.464,124.41,122.325,124.41,120.922z"/>
	<path d="M111.018,63.535c16.799,0,30.466-13.669,30.466-30.471c0-16.789-13.667-30.449-30.466-30.449
		c-16.787,0-30.444,13.66-30.444,30.449C80.574,49.865,94.231,63.535,111.018,63.535z M111.018,7.7
		c13.994,0,25.382,11.379,25.382,25.365c0,13.997-11.386,25.387-25.382,25.387c-13.982,0-25.36-11.389-25.36-25.387
		C85.658,19.079,97.035,7.7,111.018,7.7z"/>
	<path d="M194.837,150.817l-17.616-25.619c3.361-4.422,5.223-9.766,5.261-15.414c0.103-14.277-11.426-25.98-25.705-26.088
		c-14.225-0.068-25.982,11.447-26.087,25.724c-0.039,5.791,1.859,11.137,5.054,15.477l-17.999,25.37
		c-0.605,0.856-0.625,1.995-0.049,2.869c0.576,0.875,1.627,1.307,2.654,1.088l14.24-3.044l2.502,13.377
		c0.198,1.059,1.041,1.878,2.105,2.046c0.132,0.02,0.264,0.031,0.393,0.031c0.924,0,1.788-0.503,2.235-1.334l14.558-26.937
		l14.175,27.141c0.442,0.847,1.315,1.366,2.251,1.366c0.119,0,0.239-0.008,0.359-0.025c1.066-0.153,1.922-0.958,2.135-2.013
		l2.695-13.335l14.172,3.242c1.017,0.232,2.083-0.181,2.671-1.049C195.433,152.817,195.43,151.678,194.837,150.817z M156.603,88.78
		c0.044,0,0.092,0,0.136,0c11.476,0.086,20.741,9.494,20.656,20.968v0.002c-0.036,5.552-2.237,10.76-6.2,14.662
		c-3.923,3.864-9.103,5.988-14.601,5.986c-0.051,0-0.105,0-0.158,0c-11.471-0.078-20.739-9.474-20.663-20.945
		C135.857,98.025,145.19,88.78,156.603,88.78z M140.77,156.56l-1.659-8.881c-0.125-0.673-0.52-1.269-1.09-1.649
		c-0.573-0.383-1.274-0.517-1.942-0.371l-10.411,2.225l13.569-19.124c3.603,3.264,8.12,5.52,13.128,6.345L140.77,156.56z
		 M176.594,145.953c-0.673-0.154-1.371-0.029-1.946,0.341c-0.576,0.373-0.976,0.961-1.113,1.634l-1.79,8.857l-11.291-21.616
		c4.901-0.73,9.457-2.842,13.22-6.157l13.279,19.312L176.594,145.953z"/>
</g>
</svg>
