<?xml version="1.0" encoding="utf-8"?>
<!-- Generator: Adobe Illustrator 17.0.0, SVG Export Plug-In . SVG Version: 6.00 Build 0)  -->
<!DOCTYPE svg PUBLIC "-//W3C//DTD SVG 1.1//EN" "http://www.w3.org/Graphics/SVG/1.1/DTD/svg11.dtd">
<svg version="1.1" id="Layer_1" xmlns="http://www.w3.org/2000/svg" xmlns:xlink="http://www.w3.org/1999/xlink" x="0px" y="0px"
	 width="255.12px" height="170.08px" viewBox="0 0 255.12 170.08" enable-background="new 0 0 255.12 170.08" xml:space="preserve">
<title>Artboard 6</title>
<circle fill="#FFF000" cx="104.947" cy="65.77" r="65.77"/>
<path d="M186.816,128.393L138.19,78.016l29.747-29.747l5.409,5.409c0.486,0.487,1.149,0.757,1.837,0.748h0.289
	c0.773-0.091,1.461-0.529,1.871-1.191l11.089-17.739c0.635-1.02,0.472-2.345-0.391-3.18l-7.756-7.756
	c-0.842-0.843-2.155-0.991-3.163-0.357l-17.739,11.089c-1.195,0.746-1.56,2.319-0.814,3.515c0.101,0.162,0.22,0.312,0.355,0.448
	l5.409,5.409l-29.679,29.679l-22.655-23.454c5.763-13.196-0.264-28.566-13.46-34.329c-5.462-2.385-11.576-2.827-17.324-1.252
	c-1.359,0.373-2.157,1.777-1.784,3.136c0.114,0.413,0.329,0.791,0.628,1.099L90.67,30.614l-2.772,9.763l-9.797,2.466l-10.596-10.97
	c-0.981-1.012-2.596-1.037-3.607-0.057c-0.307,0.298-0.535,0.668-0.662,1.077c-2.799,9.104-0.435,19.01,6.174,25.869
	c7.293,7.575,18.44,9.994,28.216,6.123l22.008,22.774l-13.606,13.606l-3.64-3.64c-0.996-0.995-2.61-0.995-3.606,0l-35.105,35.036
	c-0.995,0.996-0.995,2.61,0,3.606l10.885,10.885c0.996,0.995,2.61,0.995,3.606,0l35.036-34.9c0.995-0.996,0.995-2.61,0-3.606
	l-3.64-3.708l13.606-13.606l49.323,51.024c1.842,1.923,4.379,3.026,7.041,3.061h0.17c2.607,0.005,5.112-1.015,6.973-2.84
	C190.613,138.69,190.674,132.356,186.816,128.393z M178.108,29.594l4.898,4.898l-8.317,13.3l-9.882-9.882L178.108,29.594z
	 M76.366,141.847l-7.279-7.313l31.431-31.431l7.279,7.279L76.366,141.847z M183.04,138.955c-0.933,0.906-2.186,1.408-3.487,1.395
	c-1.287-0.029-2.511-0.567-3.402-1.497l-76.094-78.815c-0.768-0.786-1.954-0.992-2.942-0.51c-8.094,3.868-17.755,2.121-23.981-4.337
	c-4.179-4.337-6.302-10.255-5.834-16.26l8.215,8.504c0.637,0.658,1.579,0.925,2.466,0.697l12.654-3.18
	c0.867-0.207,1.564-0.852,1.837-1.701l3.572-12.586c0.249-0.872,0.016-1.811-0.612-2.466L87.2,19.695
	c11.58-0.508,21.379,8.468,21.887,20.048c0.161,3.665-0.642,7.308-2.328,10.566c-0.472,0.942-0.317,2.077,0.391,2.857l75.992,78.764
	c1.889,1.964,1.844,5.083-0.102,6.99V138.955z"/>
</svg>
