<?xml version="1.0" encoding="utf-8"?>
<!-- Generator: Adobe Illustrator 17.0.0, SVG Export Plug-In . SVG Version: 6.00 Build 0)  -->
<!DOCTYPE svg PUBLIC "-//W3C//DTD SVG 1.1//EN" "http://www.w3.org/Graphics/SVG/1.1/DTD/svg11.dtd">
<svg version="1.1" id="Layer_1" xmlns="http://www.w3.org/2000/svg" xmlns:xlink="http://www.w3.org/1999/xlink" x="0px" y="0px"
	 width="255.12px" height="170.08px" viewBox="0 0 255.12 170.08" enable-background="new 0 0 255.12 170.08" xml:space="preserve">
<g>
	<circle fill="#FFF000" cx="152.58" cy="68.27" r="65.77"/>
	<g>
		<path d="M87.812,70.306c0,4.68,3.807,8.488,8.488,8.488s8.488-3.809,8.488-8.488c0-4.68-3.809-8.488-8.488-8.488
			C91.62,61.818,87.812,65.626,87.812,70.306z M99.882,70.306c0,1.975-1.607,3.582-3.582,3.582s-3.582-1.607-3.582-3.582
			c0-1.975,1.607-3.582,3.582-3.582S99.882,68.33,99.882,70.306z"/>
		<path d="M171.539,43.975c-1.19-0.645-2.679-0.211-3.329,0.977c-0.65,1.188-0.211,2.679,0.977,3.329
			c16.855,9.199,26.916,24.043,26.916,39.708c0,14.434-5.768,25.091-18.703,34.557c-0.479,0.353-0.815,0.868-0.947,1.447
			l-4.835,21.781h-9.05l-2.882-11.1c-0.176-0.67-0.625-1.237-1.239-1.558c-0.614-0.321-1.34-0.365-1.989-0.125
			c-8.029,2.983-14.113,3.94-25.044,3.94c-10.377,0-17.795-0.729-27.252-4.572c-0.663-0.272-1.411-0.238-2.046,0.091
			c-0.636,0.327-1.097,0.918-1.263,1.614l-2.782,11.711H89.1l-4.764-23.498c-0.128-0.631-0.5-1.187-1.033-1.546
			c-20.424-13.759-30.777-25.63-30.777-35.286v-9.263c0-3.976,2.814-7.21,6.272-7.21h10.894l0.213-0.002
			c0.096-0.002,0.184-0.007,0.279,0.002c0.937,0.086,1.852-0.368,2.338-1.182c3.528-5.892,8.642-11.201,15.197-15.779
			c0.657-0.459,1.048-1.21,1.048-2.011V29.605c8.75,0.913,14.915,6.619,17.284,12.28c0.522,1.249,1.96,1.838,3.209,1.317
			c1.249-0.523,1.84-1.96,1.317-3.209c-3.209-7.674-11.956-15.42-24.262-15.42c-1.356,0-2.453,1.097-2.453,2.453v21.71
			c-6.192,4.496-11.164,9.643-14.804,15.33H58.797c-6.164,0-11.177,5.436-11.177,12.116v9.263c0,16.613,23.228,32.793,32.106,38.791
			l4.963,24.479c0.231,1.143,1.236,1.965,2.404,1.965h12.916c1.136,0,2.124-0.78,2.387-1.886l2.581-10.867
			c8.966,3.256,16.412,3.908,26.437,3.908c9.244,0,15.81-0.544,24.195-3.343l2.688,10.35c0.28,1.082,1.256,1.837,2.374,1.837h12.916
			c1.15,0,2.146-0.8,2.396-1.921l5.065-22.807c13.613-10.225,19.964-22.311,19.964-37.962
			C201.011,70.5,189.992,54.047,171.539,43.975z"/>
		<path d="M122.992,50.936c0.743,0.041,1.435-0.258,1.925-0.799c3.329-3.652,8.667-5.831,14.277-5.831
			c5.564,0,10.73,2.173,14.174,5.961c0.464,0.513,1.126,0.804,1.815,0.804c0.034,0,0.066,0,0.1-0.002
			c0.726-0.029,1.401-0.378,1.845-0.954c3.069-3.984,4.69-8.755,4.688-13.794c0-12.474-10.149-22.622-22.622-22.622
			c-12.472,0-22.622,10.148-22.622,22.622c0,4.972,1.584,9.692,4.578,13.645C121.589,50.546,122.264,50.902,122.992,50.936z
			 M139.193,18.604c9.768,0,17.716,7.948,17.716,17.717c0.002,3.018-0.739,5.912-2.163,8.5c-4.205-3.474-9.717-5.421-15.551-5.421
			c-5.917,0-11.453,1.898-15.624,5.284c-1.374-2.556-2.092-5.402-2.092-8.365C121.478,26.552,129.424,18.604,139.193,18.604z"/>
	</g>
</g>
</svg>
