<?xml version="1.0" encoding="utf-8"?>
<!-- Generator: Adobe Illustrator 17.0.0, SVG Export Plug-In . SVG Version: 6.00 Build 0)  -->
<!DOCTYPE svg PUBLIC "-//W3C//DTD SVG 1.1//EN" "http://www.w3.org/Graphics/SVG/1.1/DTD/svg11.dtd">
<svg version="1.1" id="Layer_1" xmlns="http://www.w3.org/2000/svg" xmlns:xlink="http://www.w3.org/1999/xlink" x="0px" y="0px"
	 width="255.12px" height="170.08px" viewBox="0 0 255.12 170.08" enable-background="new 0 0 255.12 170.08" xml:space="preserve">
<circle fill="#FFF000" cx="143.947" cy="99.77" r="65.77"/>
<g>
	<path d="M151.541,64.8l-51.364,40.819c-1.02,0.85-1.361,2.551-0.34,3.572c0.51,0.68,1.191,1.02,2.041,1.02
		c0.51,0,1.191-0.17,1.531-0.51l51.364-40.819c1.02-0.85,1.361-2.551,0.34-3.572C154.263,64.12,152.732,63.95,151.541,64.8z"/>
	<path d="M113.954,82.999c0.68,0,1.361,0,2.041-0.17c6.973-1.02,11.906-7.654,10.715-14.797c-0.51-3.402-2.381-6.463-5.102-8.504
		c-2.721-2.041-6.123-2.891-9.524-2.381c-3.402,0.51-6.463,2.381-8.504,5.102c-2.041,2.721-2.891,6.123-2.381,9.524
		C102.218,78.407,107.831,82.999,113.954,82.999z M112.763,62.419c0.34,0,0.85-0.17,1.191-0.17c3.742,0,7.143,2.721,7.654,6.633
		c0.68,4.252-2.211,8.164-6.463,8.844c-4.252,0.68-8.164-2.211-8.844-6.463C105.62,67.012,108.681,63.1,112.763,62.419z"/>
	<path d="M141.166,91.503c-7.143,0-12.926,5.783-12.926,12.926s5.783,12.926,12.926,12.926s12.926-5.783,12.926-12.926
		C153.922,97.286,148.14,91.503,141.166,91.503z M141.166,112.083c-4.252,0-7.824-3.572-7.824-7.824s3.572-7.824,7.824-7.824
		s7.824,3.572,7.824,7.824C148.82,108.681,145.418,112.083,141.166,112.083z"/>
	<path d="M204.776,85.55c0-0.17,0.17-0.51,0.17-0.68c0-7.313-7.654-11.055-14.287-14.287c-4.762-2.381-9.865-4.932-11.225-7.994
		c-1.361-3.232,0.51-8.504,2.381-13.436c2.551-6.973,5.102-14.117,0.34-18.879c-4.762-4.762-11.565-3.061-18.369-1.531
		c-4.762,1.02-9.695,2.211-12.926,0.85c-3.232-1.361-5.953-5.613-8.504-9.695c-3.742-5.783-7.824-12.416-14.967-12.416
		s-11.225,6.633-14.797,12.586c-2.551,4.252-5.102,8.504-8.334,9.865c-3.232,1.361-8.334,0.17-13.096-1.02
		c-6.803-1.701-13.776-3.402-18.369,1.191c-4.762,4.762-2.381,11.906-0.17,18.879c1.701,5.102,3.232,10.205,1.871,13.606
		c-1.361,3.232-6.123,5.613-10.715,7.994c-6.463,3.402-13.776,7.143-13.776,14.287c0,0.17,0,0.51,0.17,0.68
		c0,0.17-0.17,0.51-0.17,0.68c0,7.143,7.313,11.055,13.776,14.287c4.592,2.381,9.354,4.762,10.715,7.994
		c1.361,3.232-0.34,8.504-1.871,13.606c-2.211,6.973-4.592,14.117,0.17,18.879c4.762,4.762,11.736,2.891,18.369,1.191
		c4.762-1.191,9.865-2.381,13.096-1.02c3.232,1.361,5.783,5.613,8.334,9.865c3.572,5.953,7.654,12.586,14.797,12.586
		s11.395-6.633,14.967-12.416c2.551-4.082,5.272-8.334,8.504-9.695c3.402-1.361,8.164-0.34,12.926,0.85
		c6.633,1.531,13.606,3.232,18.369-1.531c4.762-4.762,2.211-11.906-0.34-18.879c-1.871-5.102-3.742-10.205-2.381-13.436
		c1.361-3.232,6.293-5.613,11.225-7.994c6.633-3.402,14.287-7.143,14.287-14.287C204.946,85.89,204.776,85.72,204.776,85.55z
		 M188.279,95.925c-5.613,2.891-11.565,5.783-13.606,10.715c-2.211,5.102,0.17,11.225,2.211,17.178
		c2.041,5.613,4.082,11.055,1.531,13.436c-2.721,2.721-7.994,1.531-13.606,0.17s-11.225-2.551-16.158-0.51
		c-4.762,2.041-7.824,6.803-10.715,11.565c-3.232,5.102-6.293,10.035-10.715,10.035c-4.252,0-7.313-4.932-10.545-10.205
		c-2.891-4.932-5.953-9.865-10.715-11.906c-4.932-2.041-10.715-0.68-16.328,0.85c-5.613,1.361-10.885,2.721-13.606,0.17
		c-2.551-2.551-0.85-7.994,1.02-13.606c1.871-5.953,3.912-12.076,1.701-17.008c-2.041-4.932-7.654-7.824-13.096-10.545
		c-5.613-2.891-10.885-5.613-10.885-9.865c0-0.17,0-0.51-0.17-0.68c0-0.17,0.17-0.51,0.17-0.68c0-4.082,5.272-6.803,10.885-9.865
		c5.443-2.721,11.055-5.613,13.096-10.545c2.041-5.102,0.17-11.225-1.701-17.008s-3.572-11.225-1.02-13.606
		c2.721-2.721,7.994-1.361,13.606,0.17c5.613,1.361,11.395,2.891,16.328,0.85c4.762-2.041,7.824-6.973,10.715-11.906
		c3.232-5.272,6.123-10.205,10.545-10.205c4.422,0,7.484,4.932,10.715,10.035c3.061,4.762,6.123,9.524,10.715,11.565
		c4.932,2.041,10.545,0.68,16.158-0.51c5.613-1.361,10.885-2.551,13.606,0.17c2.551,2.381,0.51,7.824-1.531,13.436
		c-2.211,5.953-4.422,12.076-2.211,17.178c2.041,4.932,7.994,7.824,13.606,10.715c5.953,2.891,11.395,5.783,11.395,9.865
		c0,0.17,0,0.51,0.17,0.68c0,0.17-0.17,0.51-0.17,0.68C199.844,90.142,194.231,93.034,188.279,95.925z"/>
</g>
</svg>
